
<svg width="1543" height="745" viewBox="0 0 1543 745" fill="none" xmlns="http://www.w3.org/2000/svg">
<path d="M77.6523 668.623C91.138 668.623 104.817 669.331 118.281 668.623C129.494 668.033 139.805 663.843 151.74 663.843C177.045 663.843 196.701 651.731 217.329 639.944C229.485 632.998 238.314 615.507 248.531 605.29C260.777 593.044 267.42 578.214 278.405 565.857C287.356 555.786 288.42 539.648 297.524 530.008C302.893 524.323 305.124 515.554 309.474 509.03C316.813 498.021 324.895 488.741 329.788 476.235C335.09 462.687 342.713 448.766 345.323 434.411C348.234 418.398 351.101 401.61 358.467 386.879C363.88 376.052 371.291 367.4 375.064 355.544C378.262 345.494 378.916 334.36 381.171 324.21C383.132 315.387 387.285 284.692 394.316 279.067C405.032 270.494 402.038 245.274 406.929 233.659C409.474 227.615 406.411 155.624 413 159.5C418.075 162.485 449 193 449 193C449 193 463.979 211.416 468 227.5C489.602 267.437 518.5 335.5 529.326 343.5C540.153 351.5 582.588 450.667 579.534 453.531L601.043 430.826C605.951 419.783 611.779 409.171 619.1 399.758C622.872 394.908 621.968 385.179 626.27 393.783C631.015 403.272 639.051 411.609 646.452 419.01C657.047 429.605 664.386 442.786 675.131 453.531C702.956 481.356 736.065 503.444 763.159 532.132C774.582 544.228 782.317 560.326 797.016 569.309C805.864 574.716 817.165 581.225 824.5 588.561C833.718 597.779 848.446 613.144 860.349 618.435C864.288 620.186 880.775 634.895 883.053 638.882C888.115 647.74 909.575 651.893 918.902 651.893C951.574 651.893 983.942 663.843 1016.89 663.843C1050.4 663.843 1084.54 668.623 1117.26 668.623" stroke="#1E1E1E" stroke-width="8" stroke-linecap="round" stroke-linejoin="round"/>
<path d="M1302.77 54.4961V61H1299.96V43.9375H1305.66C1306.52 43.9453 1307.31 44.0742 1308.03 44.3242C1308.76 44.5742 1309.38 44.9297 1309.91 45.3906C1310.43 45.8516 1310.84 46.4102 1311.12 47.0664C1311.41 47.7227 1311.56 48.4609 1311.56 49.2812C1311.56 50.0703 1311.41 50.7852 1311.12 51.4258C1310.84 52.0586 1310.43 52.6016 1309.91 53.0547C1309.38 53.5156 1308.76 53.8711 1308.03 54.1211C1307.31 54.3711 1306.52 54.4961 1305.66 54.4961H1302.77ZM1302.77 52.1992H1305.66C1306.14 52.1914 1306.57 52.1172 1306.94 51.9766C1307.32 51.8281 1307.65 51.625 1307.91 51.3672C1308.18 51.1094 1308.38 50.8047 1308.51 50.4531C1308.65 50.1016 1308.72 49.7188 1308.72 49.3047C1308.72 48.8516 1308.65 48.4414 1308.51 48.0742C1308.38 47.6992 1308.18 47.375 1307.91 47.1016C1307.65 46.8281 1307.32 46.6172 1306.94 46.4688C1306.57 46.3203 1306.14 46.2422 1305.66 46.2344H1302.77V52.1992ZM1322.54 48.0859C1322.99 48.0859 1323.43 48.1172 1323.85 48.1797C1324.28 48.2422 1324.62 48.3164 1324.86 48.4023L1324.46 51.168C1324.03 51.0742 1323.61 51.0039 1323.18 50.957C1322.77 50.9102 1322.36 50.8867 1321.94 50.8867C1321.47 50.8867 1321.05 50.9336 1320.68 51.0273C1320.3 51.1211 1319.97 51.2656 1319.68 51.4609C1319.37 51.6484 1319.1 51.8867 1318.88 52.1758C1318.67 52.4648 1318.48 52.7969 1318.33 53.1719V61H1315.53V48.3203H1318.16L1318.27 50.0781L1318.29 50.3711C1318.8 49.6602 1319.42 49.1016 1320.14 48.6953C1320.86 48.2891 1321.67 48.0859 1322.54 48.0859ZM1327.22 54.543C1327.22 53.6211 1327.35 52.7695 1327.62 51.9883C1327.88 51.1992 1328.27 50.5156 1328.78 49.9375C1329.28 49.3594 1329.89 48.9062 1330.62 48.5781C1331.34 48.25 1332.17 48.0859 1333.1 48.0859C1334.03 48.0859 1334.86 48.25 1335.58 48.5781C1336.32 48.9062 1336.94 49.3594 1337.45 49.9375C1337.95 50.5156 1338.33 51.1992 1338.6 51.9883C1338.86 52.7695 1338.99 53.6211 1338.99 54.543V54.7891C1338.99 55.7188 1338.86 56.5742 1338.6 57.3555C1338.33 58.1367 1337.95 58.8164 1337.45 59.3945C1336.95 59.9727 1336.33 60.4258 1335.6 60.7539C1334.87 61.082 1334.05 61.2461 1333.12 61.2461C1332.19 61.2461 1331.36 61.082 1330.63 60.7539C1329.89 60.4258 1329.28 59.9727 1328.78 59.3945C1328.27 58.8164 1327.88 58.1367 1327.62 57.3555C1327.35 56.5742 1327.22 55.7188 1327.22 54.7891V54.543ZM1330.02 54.7891C1330.02 55.3594 1330.08 55.8984 1330.19 56.4062C1330.32 56.9141 1330.51 57.3594 1330.77 57.7422C1331.02 58.125 1331.34 58.4297 1331.73 58.6562C1332.12 58.875 1332.58 58.9844 1333.12 58.9844C1333.65 58.9844 1334.1 58.875 1334.49 58.6562C1334.88 58.4297 1335.21 58.125 1335.46 57.7422C1335.71 57.3594 1335.89 56.9141 1336.01 56.4062C1336.13 55.8984 1336.19 55.3594 1336.19 54.7891V54.543C1336.19 53.9883 1336.13 53.457 1336.01 52.9492C1335.88 52.4414 1335.7 51.9961 1335.46 51.6133C1335.2 51.2305 1334.87 50.9258 1334.48 50.6992C1334.1 50.4727 1333.64 50.3594 1333.1 50.3594C1332.57 50.3594 1332.11 50.4727 1331.72 50.6992C1331.33 50.9258 1331.02 51.2305 1330.77 51.6133C1330.51 51.9961 1330.32 52.4414 1330.19 52.9492C1330.08 53.457 1330.02 53.9883 1330.02 54.543V54.7891ZM1341.32 54.5664C1341.32 53.6055 1341.43 52.7305 1341.66 51.9414C1341.89 51.1445 1342.23 50.4609 1342.66 49.8906C1343.09 49.3203 1343.62 48.8789 1344.23 48.5664C1344.86 48.2461 1345.56 48.0859 1346.34 48.0859C1347.05 48.0859 1347.66 48.2109 1348.18 48.4609C1348.71 48.7031 1349.18 49.0508 1349.59 49.5039V43H1352.39V61H1349.85L1349.72 59.6758C1349.31 60.1758 1348.83 60.5625 1348.26 60.8359C1347.7 61.1016 1347.05 61.2344 1346.32 61.2344C1345.55 61.2344 1344.85 61.0742 1344.23 60.7539C1343.62 60.4258 1343.09 59.9727 1342.66 59.3945C1342.23 58.8242 1341.9 58.1484 1341.67 57.3672C1341.43 56.5781 1341.32 55.7266 1341.32 54.8125V54.5664ZM1344.12 54.8125C1344.12 55.375 1344.17 55.9062 1344.28 56.4062C1344.39 56.9062 1344.56 57.3398 1344.8 57.707C1345.03 58.0898 1345.33 58.3906 1345.7 58.6094C1346.07 58.8203 1346.51 58.9258 1347.02 58.9258C1347.66 58.9258 1348.18 58.7891 1348.59 58.5156C1349.01 58.2344 1349.34 57.8555 1349.59 57.3789V51.9297C1349.34 51.4609 1349.01 51.0898 1348.59 50.8164C1348.19 50.5352 1347.67 50.3945 1347.05 50.3945C1346.52 50.3945 1346.07 50.5039 1345.7 50.7227C1345.33 50.9414 1345.03 51.2422 1344.81 51.625C1344.57 52.0078 1344.39 52.4531 1344.28 52.9609C1344.17 53.4609 1344.12 53.9961 1344.12 54.5664V54.8125ZM1363.96 61L1363.79 59.2305C1363.36 59.8633 1362.84 60.3594 1362.22 60.7188C1361.61 61.0703 1360.91 61.2461 1360.15 61.2461C1359.49 61.2461 1358.89 61.1445 1358.34 60.9414C1357.8 60.7305 1357.34 60.4062 1356.95 59.9688C1356.57 59.5312 1356.27 58.9727 1356.06 58.293C1355.85 57.6055 1355.74 56.7852 1355.74 55.832V48.3203H1358.54V55.8555C1358.54 56.4414 1358.59 56.9336 1358.67 57.332C1358.76 57.7227 1358.89 58.0352 1359.08 58.2695C1359.27 58.5117 1359.51 58.6836 1359.8 58.7852C1360.09 58.8867 1360.43 58.9375 1360.82 58.9375C1361.22 58.9375 1361.59 58.8945 1361.91 58.8086C1362.23 58.7148 1362.51 58.5898 1362.75 58.4336C1362.95 58.293 1363.13 58.1289 1363.29 57.9414C1363.45 57.7461 1363.58 57.5312 1363.69 57.2969V48.3203H1366.5V61H1363.96ZM1375.13 58.9844C1375.48 58.9844 1375.81 58.9336 1376.13 58.832C1376.46 58.7227 1376.75 58.5703 1377 58.375C1377.24 58.1797 1377.43 57.9492 1377.58 57.6836C1377.72 57.418 1377.8 57.125 1377.8 56.8047H1380.43C1380.44 57.4219 1380.3 58.0039 1380.01 58.5508C1379.73 59.0898 1379.35 59.5547 1378.86 59.9453C1378.37 60.3516 1377.81 60.6719 1377.17 60.9062C1376.53 61.1328 1375.86 61.2461 1375.16 61.2461C1374.18 61.2461 1373.33 61.0781 1372.6 60.7422C1371.87 60.3984 1371.26 59.9375 1370.78 59.3594C1370.29 58.7812 1369.92 58.1094 1369.67 57.3438C1369.42 56.5703 1369.29 55.7461 1369.29 54.8711V54.4609C1369.29 53.5938 1369.41 52.7734 1369.65 52C1369.9 51.2266 1370.27 50.5508 1370.77 49.9727C1371.26 49.3945 1371.87 48.9375 1372.6 48.6016C1373.33 48.2578 1374.18 48.0859 1375.15 48.0859C1375.92 48.0859 1376.62 48.2031 1377.27 48.4375C1377.93 48.6719 1378.49 49 1378.96 49.4219C1379.43 49.8438 1379.79 50.3477 1380.05 50.9336C1380.31 51.5195 1380.44 52.1641 1380.43 52.8672H1377.8C1377.8 52.5234 1377.73 52.1992 1377.6 51.8945C1377.47 51.5898 1377.29 51.3242 1377.06 51.0977C1376.82 50.8711 1376.53 50.6914 1376.19 50.5586C1375.86 50.4258 1375.51 50.3594 1375.13 50.3594C1374.54 50.3594 1374.05 50.4805 1373.66 50.7227C1373.28 50.957 1372.97 51.2656 1372.75 51.6484C1372.51 52.0312 1372.33 52.4688 1372.23 52.9609C1372.14 53.4531 1372.09 53.9531 1372.09 54.4609V54.8711C1372.09 55.3867 1372.14 55.8945 1372.23 56.3945C1372.33 56.8867 1372.5 57.3203 1372.74 57.6953C1372.96 58.0859 1373.27 58.3984 1373.66 58.6328C1374.05 58.8672 1374.54 58.9844 1375.13 58.9844ZM1389.19 45.2266V48.3203H1393.96V50.418H1389.19V56.4766C1389.19 56.9453 1389.24 57.3398 1389.35 57.6602C1389.47 57.9727 1389.63 58.2188 1389.83 58.3984C1390.04 58.5859 1390.28 58.7188 1390.56 58.7969C1390.84 58.875 1391.15 58.9141 1391.49 58.9141C1391.73 58.9141 1391.98 58.9023 1392.24 58.8789C1392.49 58.8555 1392.74 58.8242 1392.99 58.7852C1393.22 58.7539 1393.44 58.7188 1393.64 58.6797C1393.85 58.6328 1394.03 58.5938 1394.17 58.5625L1394.47 60.4961C1394.27 60.6211 1394.03 60.7305 1393.74 60.8242C1393.46 60.9102 1393.15 60.9844 1392.82 61.0469C1392.49 61.1094 1392.15 61.1562 1391.79 61.1875C1391.44 61.2266 1391.09 61.2461 1390.74 61.2461C1390.1 61.2461 1389.51 61.1602 1388.97 60.9883C1388.44 60.8086 1387.98 60.5312 1387.6 60.1562C1387.21 59.7891 1386.91 59.3164 1386.69 58.7383C1386.48 58.1602 1386.38 57.4648 1386.38 56.6523V50.418H1383.31V48.3203H1386.38V45.2266H1389.19Z" fill="#1E1E1E"/>
<rect x="1290" y="96.3223" width="112" height="16" rx="3" fill="#FFCD29"/>
<rect x="1258" y="128.322" width="80" height="16" rx="3" fill="#FFA629"/>
<rect x="1354" y="128.322" width="80" height="16" rx="3" fill="#FFA629"/>
<rect x="1258" y="160.322" width="48" height="16" rx="3" fill="#FFC7C2"/>
<rect x="1258" y="192.322" width="32" height="16" rx="3" fill="#E4CCFF"/>
<rect x="1306" y="192.322" width="32" height="16" rx="3" fill="#E4CCFF"/>
<rect x="1354" y="192.322" width="32" height="16" rx="3" fill="#E4CCFF"/>
<rect x="1402" y="192.322" width="32" height="16" rx="3" fill="#E4CCFF"/>
<rect x="1322" y="160.322" width="48" height="16" rx="3" fill="#FFC7C2"/>
<rect x="1386" y="160.322" width="48" height="16" rx="3" fill="#FFC7C2"/>
<path d="M1346 116.322V116.322C1346 118.531 1344.21 120.322 1342 120.322H1302C1299.79 120.322 1298 122.113 1298 124.322V124.322" stroke="#B3B3B3" stroke-width="3" stroke-miterlimit="0" stroke-linecap="round" stroke-linejoin="bevel"/>
<path d="M1346 116.322V116.322C1346 118.531 1347.79 120.322 1350 120.322H1390C1392.21 120.322 1394 122.113 1394 124.322V124.322" stroke="#B3B3B3" stroke-width="3" stroke-miterlimit="0" stroke-linecap="round" stroke-linejoin="bevel"/>
<path d="M1394 148.322V148.322C1394 150.531 1395.79 152.322 1398 152.322H1406C1408.21 152.322 1410 154.113 1410 156.322V156.322" stroke="#B3B3B3" stroke-width="3" stroke-miterlimit="0" stroke-linecap="round" stroke-linejoin="bevel"/>
<path d="M1298 148.322V148.322C1298 150.531 1296.21 152.322 1294 152.322H1286C1283.79 152.322 1282 154.113 1282 156.322V156.322" stroke="#B3B3B3" stroke-width="3" stroke-miterlimit="0" stroke-linecap="round" stroke-linejoin="bevel"/>
<path d="M1298 148.322V148.322C1298 150.531 1299.79 152.322 1302 152.322H1342C1344.21 152.322 1346 154.113 1346 156.322V156.322" stroke="#B3B3B3" stroke-width="3" stroke-miterlimit="0" stroke-linecap="round" stroke-linejoin="bevel"/>
<path d="M1394 148.322V148.322C1394 150.531 1392.21 152.322 1390 152.322H1350C1347.79 152.322 1346 154.113 1346 156.322V156.322" stroke="#B3B3B3" stroke-width="3" stroke-miterlimit="0" stroke-linecap="round" stroke-linejoin="bevel"/>
<path d="M1282 180.322V180.322C1282 182.531 1280.21 184.322 1278 184.322V184.322C1275.79 184.322 1274 186.113 1274 188.322V188.322" stroke="#B3B3B3" stroke-width="3" stroke-miterlimit="0" stroke-linecap="round" stroke-linejoin="bevel"/>
<path d="M1282 180.322V180.322C1282 182.531 1283.79 184.322 1286 184.322H1318C1320.21 184.322 1322 186.113 1322 188.322V188.322" stroke="#B3B3B3" stroke-width="3" stroke-miterlimit="0" stroke-linecap="round" stroke-linejoin="bevel"/>
<path d="M1346 180.322V180.322C1346 182.531 1347.79 184.322 1350 184.322H1366C1368.21 184.322 1370 186.113 1370 188.322V188.322" stroke="#B3B3B3" stroke-width="3" stroke-miterlimit="0" stroke-linecap="round" stroke-linejoin="bevel"/>
<path d="M1410 180.322V180.322C1410 182.531 1411.79 184.322 1414 184.322V184.322C1416.21 184.322 1418 186.113 1418 188.322V188.322" stroke="#B3B3B3" stroke-width="3" stroke-miterlimit="0" stroke-linecap="round" stroke-linejoin="bevel"/>
<rect x="1234" y="75.3223" width="224" height="162" rx="6" stroke="#1E1E1E" stroke-width="4" stroke-miterlimit="0" stroke-linecap="round"/>
<path d="M1300.77 273.496V280H1297.96V262.938H1303.66C1304.52 262.945 1305.31 263.074 1306.03 263.324C1306.76 263.574 1307.38 263.93 1307.91 264.391C1308.43 264.852 1308.84 265.41 1309.12 266.066C1309.41 266.723 1309.56 267.461 1309.56 268.281C1309.56 269.07 1309.41 269.785 1309.12 270.426C1308.84 271.059 1308.43 271.602 1307.91 272.055C1307.38 272.516 1306.76 272.871 1306.03 273.121C1305.31 273.371 1304.52 273.496 1303.66 273.496H1300.77ZM1300.77 271.199H1303.66C1304.14 271.191 1304.57 271.117 1304.94 270.977C1305.32 270.828 1305.65 270.625 1305.91 270.367C1306.18 270.109 1306.38 269.805 1306.51 269.453C1306.65 269.102 1306.72 268.719 1306.72 268.305C1306.72 267.852 1306.65 267.441 1306.51 267.074C1306.38 266.699 1306.18 266.375 1305.91 266.102C1305.65 265.828 1305.32 265.617 1304.94 265.469C1304.57 265.32 1304.14 265.242 1303.66 265.234H1300.77V271.199ZM1320.54 267.086C1320.99 267.086 1321.43 267.117 1321.85 267.18C1322.28 267.242 1322.62 267.316 1322.86 267.402L1322.46 270.168C1322.03 270.074 1321.61 270.004 1321.18 269.957C1320.77 269.91 1320.36 269.887 1319.94 269.887C1319.47 269.887 1319.05 269.934 1318.68 270.027C1318.3 270.121 1317.97 270.266 1317.68 270.461C1317.37 270.648 1317.1 270.887 1316.88 271.176C1316.67 271.465 1316.48 271.797 1316.33 272.172V280H1313.53V267.32H1316.16L1316.27 269.078L1316.29 269.371C1316.8 268.66 1317.42 268.102 1318.14 267.695C1318.86 267.289 1319.67 267.086 1320.54 267.086ZM1325.22 273.543C1325.22 272.621 1325.35 271.77 1325.62 270.988C1325.88 270.199 1326.27 269.516 1326.78 268.938C1327.28 268.359 1327.89 267.906 1328.62 267.578C1329.34 267.25 1330.17 267.086 1331.1 267.086C1332.03 267.086 1332.86 267.25 1333.58 267.578C1334.32 267.906 1334.94 268.359 1335.45 268.938C1335.95 269.516 1336.33 270.199 1336.6 270.988C1336.86 271.77 1336.99 272.621 1336.99 273.543V273.789C1336.99 274.719 1336.86 275.574 1336.6 276.355C1336.33 277.137 1335.95 277.816 1335.45 278.395C1334.95 278.973 1334.33 279.426 1333.6 279.754C1332.87 280.082 1332.05 280.246 1331.12 280.246C1330.19 280.246 1329.36 280.082 1328.63 279.754C1327.89 279.426 1327.28 278.973 1326.78 278.395C1326.27 277.816 1325.88 277.137 1325.62 276.355C1325.35 275.574 1325.22 274.719 1325.22 273.789V273.543ZM1328.02 273.789C1328.02 274.359 1328.08 274.898 1328.19 275.406C1328.32 275.914 1328.51 276.359 1328.77 276.742C1329.02 277.125 1329.34 277.43 1329.73 277.656C1330.12 277.875 1330.58 277.984 1331.12 277.984C1331.65 277.984 1332.1 277.875 1332.49 277.656C1332.88 277.43 1333.21 277.125 1333.46 276.742C1333.71 276.359 1333.89 275.914 1334.01 275.406C1334.13 274.898 1334.19 274.359 1334.19 273.789V273.543C1334.19 272.988 1334.13 272.457 1334.01 271.949C1333.88 271.441 1333.7 270.996 1333.46 270.613C1333.2 270.23 1332.87 269.926 1332.48 269.699C1332.1 269.473 1331.64 269.359 1331.1 269.359C1330.57 269.359 1330.11 269.473 1329.72 269.699C1329.33 269.926 1329.02 270.23 1328.77 270.613C1328.51 270.996 1328.32 271.441 1328.19 271.949C1328.08 272.457 1328.02 272.988 1328.02 273.543V273.789ZM1339.33 273.566C1339.33 272.605 1339.44 271.73 1339.68 270.941C1339.91 270.145 1340.25 269.461 1340.7 268.891C1341.14 268.32 1341.68 267.879 1342.3 267.566C1342.94 267.246 1343.65 267.086 1344.44 267.086C1344.91 267.086 1345.33 267.137 1345.71 267.238C1346.1 267.332 1346.44 267.473 1346.76 267.66C1346.96 267.777 1347.15 267.918 1347.33 268.082C1347.51 268.238 1347.68 268.41 1347.84 268.598L1347.95 267.32H1350.5V279.648C1350.5 280.5 1350.35 281.254 1350.07 281.91C1349.8 282.574 1349.41 283.137 1348.91 283.598C1348.41 284.051 1347.8 284.395 1347.09 284.629C1346.38 284.871 1345.6 284.992 1344.75 284.992C1344.39 284.992 1344 284.953 1343.57 284.875C1343.14 284.797 1342.71 284.676 1342.28 284.512C1341.85 284.348 1341.44 284.133 1341.05 283.867C1340.66 283.602 1340.32 283.281 1340.04 282.906L1341.37 281.207C1341.59 281.48 1341.84 281.715 1342.09 281.91C1342.36 282.113 1342.63 282.277 1342.9 282.402C1343.17 282.527 1343.45 282.617 1343.73 282.672C1344.01 282.734 1344.3 282.766 1344.59 282.766C1345.09 282.766 1345.53 282.695 1345.91 282.555C1346.3 282.414 1346.64 282.211 1346.91 281.945C1347.16 281.688 1347.35 281.371 1347.48 280.996C1347.62 280.621 1347.69 280.195 1347.69 279.719V278.84C1347.53 279.012 1347.36 279.172 1347.18 279.32C1347.01 279.469 1346.82 279.598 1346.62 279.707C1346.31 279.879 1345.98 280.008 1345.61 280.094C1345.24 280.188 1344.84 280.234 1344.41 280.234C1343.63 280.234 1342.93 280.074 1342.3 279.754C1341.68 279.426 1341.14 278.973 1340.7 278.395C1340.26 277.824 1339.92 277.148 1339.68 276.367C1339.44 275.578 1339.33 274.727 1339.33 273.812V273.566ZM1342.14 273.812C1342.14 274.375 1342.19 274.906 1342.3 275.406C1342.42 275.906 1342.6 276.34 1342.85 276.707C1343.1 277.09 1343.41 277.391 1343.78 277.609C1344.16 277.82 1344.6 277.926 1345.12 277.926C1345.44 277.926 1345.73 277.891 1345.98 277.82C1346.25 277.75 1346.49 277.652 1346.7 277.527C1346.91 277.395 1347.1 277.234 1347.26 277.047C1347.42 276.859 1347.57 276.652 1347.69 276.426V270.871C1347.57 270.637 1347.42 270.426 1347.24 270.238C1347.07 270.051 1346.87 269.891 1346.64 269.758C1346.44 269.648 1346.21 269.562 1345.96 269.5C1345.71 269.43 1345.44 269.395 1345.14 269.395C1344.62 269.395 1344.17 269.504 1343.79 269.723C1343.42 269.941 1343.11 270.242 1342.87 270.625C1342.62 271.008 1342.43 271.453 1342.32 271.961C1342.2 272.461 1342.14 272.996 1342.14 273.566V273.812ZM1362.41 267.086C1362.87 267.086 1363.3 267.117 1363.73 267.18C1364.16 267.242 1364.49 267.316 1364.73 267.402L1364.34 270.168C1363.91 270.074 1363.48 270.004 1363.06 269.957C1362.64 269.91 1362.23 269.887 1361.82 269.887C1361.35 269.887 1360.93 269.934 1360.55 270.027C1360.18 270.121 1359.84 270.266 1359.55 270.461C1359.24 270.648 1358.98 270.887 1358.76 271.176C1358.54 271.465 1358.36 271.797 1358.21 272.172V280H1355.41V267.32H1358.03L1358.15 269.078L1358.16 269.371C1358.68 268.66 1359.29 268.102 1360.01 267.695C1360.74 267.289 1361.54 267.086 1362.41 267.086ZM1375.7 280C1375.62 279.844 1375.55 279.656 1375.49 279.438C1375.45 279.211 1375.4 278.977 1375.36 278.734C1375.17 278.938 1374.95 279.133 1374.7 279.32C1374.45 279.5 1374.18 279.656 1373.88 279.789C1373.57 279.93 1373.24 280.039 1372.89 280.117C1372.54 280.195 1372.16 280.234 1371.76 280.234C1371.1 280.234 1370.5 280.141 1369.95 279.953C1369.41 279.758 1368.95 279.492 1368.57 279.156C1368.18 278.828 1367.87 278.434 1367.65 277.973C1367.44 277.504 1367.34 277 1367.34 276.461C1367.34 275.766 1367.47 275.152 1367.75 274.621C1368.03 274.082 1368.43 273.637 1368.97 273.285C1369.46 272.957 1370.06 272.707 1370.78 272.535C1371.51 272.363 1372.33 272.277 1373.24 272.277H1375.28V271.422C1375.28 271.094 1375.22 270.797 1375.11 270.531C1375 270.266 1374.84 270.035 1374.63 269.84C1374.4 269.645 1374.12 269.496 1373.79 269.395C1373.47 269.285 1373.1 269.23 1372.68 269.23C1372.3 269.23 1371.96 269.277 1371.67 269.371C1371.39 269.465 1371.16 269.594 1370.97 269.758C1370.78 269.906 1370.64 270.09 1370.55 270.309C1370.46 270.52 1370.42 270.746 1370.42 270.988H1367.61C1367.61 270.48 1367.74 269.992 1367.97 269.523C1368.2 269.055 1368.55 268.641 1369 268.281C1369.44 267.914 1369.98 267.625 1370.62 267.414C1371.27 267.195 1372.01 267.086 1372.83 267.086C1373.58 267.086 1374.27 267.18 1374.91 267.367C1375.56 267.547 1376.11 267.816 1376.58 268.176C1377.05 268.535 1377.42 268.992 1377.68 269.547C1377.95 270.094 1378.08 270.727 1378.08 271.445V277.082C1378.08 277.652 1378.12 278.168 1378.2 278.629C1378.29 279.082 1378.41 279.473 1378.56 279.801V280H1375.7ZM1372.29 277.984C1372.66 277.984 1373 277.938 1373.31 277.844C1373.63 277.75 1373.92 277.629 1374.18 277.48C1374.44 277.332 1374.66 277.164 1374.85 276.977C1375.04 276.789 1375.18 276.594 1375.28 276.391V274.047H1373.48C1372.87 274.047 1372.34 274.105 1371.9 274.223C1371.45 274.332 1371.1 274.492 1370.83 274.703C1370.6 274.883 1370.42 275.098 1370.3 275.348C1370.19 275.598 1370.14 275.879 1370.14 276.191C1370.14 276.449 1370.18 276.691 1370.28 276.918C1370.37 277.137 1370.51 277.324 1370.69 277.48C1370.87 277.637 1371.09 277.762 1371.36 277.855C1371.62 277.941 1371.93 277.984 1372.29 277.984ZM1383.16 267.32L1383.24 268.715C1383.48 268.207 1383.81 267.809 1384.24 267.52C1384.67 267.23 1385.18 267.086 1385.78 267.086C1386.1 267.086 1386.38 267.121 1386.63 267.191C1386.88 267.262 1387.09 267.371 1387.27 267.52C1387.41 267.629 1387.54 267.762 1387.65 267.918C1387.76 268.066 1387.85 268.238 1387.93 268.434C1388.04 268.254 1388.16 268.086 1388.3 267.93C1388.44 267.773 1388.6 267.641 1388.76 267.531C1388.97 267.391 1389.21 267.281 1389.46 267.203C1389.73 267.125 1390.02 267.086 1390.33 267.086C1390.74 267.086 1391.11 267.156 1391.44 267.297C1391.79 267.43 1392.08 267.637 1392.33 267.918C1392.58 268.215 1392.78 268.602 1392.91 269.078C1393.05 269.547 1393.12 270.113 1393.12 270.777V280H1390.54V270.754C1390.54 270.504 1390.51 270.293 1390.46 270.121C1390.4 269.941 1390.33 269.797 1390.22 269.688C1390.12 269.586 1390 269.512 1389.85 269.465C1389.71 269.418 1389.55 269.395 1389.38 269.395C1389.2 269.395 1389.05 269.418 1388.91 269.465C1388.78 269.512 1388.66 269.578 1388.56 269.664C1388.47 269.742 1388.39 269.836 1388.33 269.945C1388.26 270.047 1388.22 270.164 1388.19 270.297C1388.19 270.328 1388.19 270.367 1388.19 270.414C1388.19 270.453 1388.19 270.512 1388.19 270.59V280H1385.65V270.742C1385.65 270.492 1385.63 270.281 1385.57 270.109C1385.53 269.93 1385.45 269.789 1385.35 269.688C1385.25 269.586 1385.13 269.512 1384.99 269.465C1384.85 269.418 1384.7 269.395 1384.53 269.395C1384.34 269.395 1384.17 269.422 1384.03 269.477C1383.89 269.523 1383.76 269.598 1383.66 269.699C1383.58 269.77 1383.51 269.852 1383.45 269.945C1383.4 270.039 1383.35 270.145 1383.3 270.262V280H1380.72V267.32H1383.16Z" fill="#1E1E1E"/>
<rect x="1258" y="313.322" width="25.1427" height="23.5403" rx="3" fill="#0D99FF"/>
<rect x="1258" y="347.164" width="25.1427" height="23.5403" rx="3" fill="#FFCD29"/>
<rect x="1258" y="383.943" width="25.1427" height="23.5403" rx="3" fill="#BDE3FF"/>
<rect x="1258" y="417.781" width="25.1427" height="23.5403" rx="3" fill="#BDE3FF"/>
<rect x="1295.71" y="347.164" width="25.1427" height="23.5403" rx="3" fill="#FFCD29"/>
<rect x="1295.71" y="383.943" width="25.1427" height="23.5403" rx="3" fill="#BDE3FF"/>
<rect x="1333.43" y="313.322" width="25.1427" height="23.5403" rx="3" fill="#0D99FF"/>
<rect x="1333.43" y="347.164" width="25.1427" height="23.5403" rx="3" fill="#FFCD29"/>
<rect x="1333.43" y="383.943" width="25.1427" height="23.5403" rx="3" fill="#BDE3FF"/>
<rect x="1333.43" y="417.781" width="25.1427" height="23.5403" rx="3" fill="#BDE3FF"/>
<rect x="1371.14" y="347.164" width="25.1427" height="23.5403" rx="3" fill="#FFCD29"/>
<rect x="1371.14" y="383.943" width="25.1427" height="23.5403" rx="3" fill="#BDE3FF"/>
<rect x="1408.86" y="313.322" width="25.1427" height="23.5403" rx="3" fill="#0D99FF"/>
<rect x="1408.86" y="347.164" width="25.1427" height="23.5403" rx="3" fill="#FFCD29"/>
<rect x="1408.86" y="383.943" width="25.1427" height="23.5403" rx="3" fill="#BDE3FF"/>
<rect x="1408.86" y="417.781" width="25.1427" height="23.5403" rx="3" fill="#BDE3FF"/>
<rect x="1234" y="293.322" width="224" height="162" rx="6" stroke="#1E1E1E" stroke-width="4" stroke-miterlimit="0" stroke-linecap="round"/>
<path d="M1309.01 500.734H1301.79V508H1298.96V490.938H1310.04V493.27H1301.79V498.414H1309.01V500.734ZM1318.69 508.234C1317.75 508.234 1316.9 508.078 1316.11 507.766C1315.34 507.453 1314.68 507.02 1314.12 506.465C1313.57 505.918 1313.14 505.273 1312.83 504.531C1312.54 503.781 1312.39 502.973 1312.39 502.105V501.625C1312.39 500.633 1312.54 499.734 1312.86 498.93C1313.17 498.125 1313.6 497.438 1314.15 496.867C1314.69 496.297 1315.33 495.859 1316.04 495.555C1316.77 495.242 1317.54 495.086 1318.36 495.086C1319.28 495.086 1320.09 495.242 1320.79 495.555C1321.49 495.859 1322.08 496.285 1322.56 496.832C1323.04 497.387 1323.4 498.047 1323.64 498.812C1323.88 499.578 1324 500.414 1324 501.32V502.527H1315.21V502.586C1315.3 503.141 1315.43 503.605 1315.61 503.98C1315.79 504.355 1316.04 504.691 1316.35 504.988C1316.66 505.301 1317.03 505.543 1317.45 505.715C1317.88 505.887 1318.35 505.973 1318.86 505.973C1319.55 505.973 1320.2 505.84 1320.8 505.574C1321.4 505.301 1321.9 504.914 1322.29 504.414L1323.79 505.867C1323.37 506.477 1322.72 507.023 1321.84 507.508C1320.98 507.992 1319.93 508.234 1318.69 508.234ZM1318.35 497.359C1317.95 497.359 1317.58 497.434 1317.24 497.582C1316.9 497.723 1316.6 497.926 1316.34 498.191C1316.07 498.465 1315.85 498.793 1315.67 499.176C1315.49 499.559 1315.36 499.992 1315.27 500.477H1321.24V500.289C1321.24 499.922 1321.17 499.559 1321.04 499.199C1320.9 498.832 1320.72 498.512 1320.47 498.238C1320.24 497.973 1319.94 497.762 1319.58 497.605C1319.23 497.441 1318.82 497.359 1318.35 497.359ZM1334.83 508C1334.74 507.844 1334.67 507.656 1334.62 507.438C1334.57 507.211 1334.53 506.977 1334.49 506.734C1334.3 506.938 1334.07 507.133 1333.82 507.32C1333.58 507.5 1333.31 507.656 1333 507.789C1332.7 507.93 1332.37 508.039 1332.02 508.117C1331.67 508.195 1331.29 508.234 1330.88 508.234C1330.22 508.234 1329.62 508.141 1329.08 507.953C1328.54 507.758 1328.08 507.492 1327.69 507.156C1327.3 506.828 1327 506.434 1326.78 505.973C1326.57 505.504 1326.46 505 1326.46 504.461C1326.46 503.766 1326.6 503.152 1326.87 502.621C1327.15 502.082 1327.56 501.637 1328.09 501.285C1328.58 500.957 1329.19 500.707 1329.91 500.535C1330.63 500.363 1331.46 500.277 1332.37 500.277H1334.41V499.422C1334.41 499.094 1334.35 498.797 1334.23 498.531C1334.12 498.266 1333.96 498.035 1333.75 497.84C1333.53 497.645 1333.25 497.496 1332.92 497.395C1332.6 497.285 1332.23 497.23 1331.81 497.23C1331.42 497.23 1331.09 497.277 1330.8 497.371C1330.52 497.465 1330.28 497.594 1330.1 497.758C1329.91 497.906 1329.77 498.09 1329.67 498.309C1329.59 498.52 1329.55 498.746 1329.55 498.988H1326.73C1326.74 498.48 1326.86 497.992 1327.1 497.523C1327.33 497.055 1327.67 496.641 1328.13 496.281C1328.56 495.914 1329.1 495.625 1329.74 495.414C1330.39 495.195 1331.13 495.086 1331.96 495.086C1332.7 495.086 1333.39 495.18 1334.03 495.367C1334.68 495.547 1335.24 495.816 1335.71 496.176C1336.18 496.535 1336.55 496.992 1336.81 497.547C1337.08 498.094 1337.21 498.727 1337.21 499.445V505.082C1337.21 505.652 1337.25 506.168 1337.33 506.629C1337.41 507.082 1337.53 507.473 1337.69 507.801V508H1334.83ZM1331.42 505.984C1331.79 505.984 1332.13 505.938 1332.44 505.844C1332.76 505.75 1333.05 505.629 1333.31 505.48C1333.56 505.332 1333.79 505.164 1333.97 504.977C1334.16 504.789 1334.31 504.594 1334.41 504.391V502.047H1332.6C1331.99 502.047 1331.47 502.105 1331.02 502.223C1330.58 502.332 1330.22 502.492 1329.96 502.703C1329.72 502.883 1329.55 503.098 1329.43 503.348C1329.32 503.598 1329.26 503.879 1329.26 504.191C1329.26 504.449 1329.31 504.691 1329.4 504.918C1329.5 505.137 1329.63 505.324 1329.81 505.48C1329.99 505.637 1330.22 505.762 1330.48 505.855C1330.75 505.941 1331.06 505.984 1331.42 505.984ZM1346.32 492.227V495.32H1351.09V497.418H1346.32V503.477C1346.32 503.945 1346.37 504.34 1346.48 504.66C1346.6 504.973 1346.76 505.219 1346.96 505.398C1347.16 505.586 1347.41 505.719 1347.69 505.797C1347.97 505.875 1348.28 505.914 1348.61 505.914C1348.85 505.914 1349.1 505.902 1349.36 505.879C1349.62 505.855 1349.87 505.824 1350.11 505.785C1350.35 505.754 1350.57 505.719 1350.77 505.68C1350.98 505.633 1351.16 505.594 1351.3 505.562L1351.6 507.496C1351.4 507.621 1351.15 507.73 1350.86 507.824C1350.58 507.91 1350.28 507.984 1349.95 508.047C1349.62 508.109 1349.28 508.156 1348.92 508.188C1348.57 508.227 1348.21 508.246 1347.86 508.246C1347.22 508.246 1346.63 508.16 1346.09 507.988C1345.56 507.809 1345.1 507.531 1344.72 507.156C1344.34 506.789 1344.04 506.316 1343.82 505.738C1343.61 505.16 1343.5 504.465 1343.5 503.652V497.418H1340.43V495.32H1343.5V492.227H1346.32ZM1362.96 508L1362.79 506.23C1362.36 506.863 1361.84 507.359 1361.22 507.719C1360.61 508.07 1359.91 508.246 1359.15 508.246C1358.49 508.246 1357.89 508.145 1357.34 507.941C1356.8 507.73 1356.34 507.406 1355.95 506.969C1355.57 506.531 1355.27 505.973 1355.06 505.293C1354.85 504.605 1354.74 503.785 1354.74 502.832V495.32H1357.54V502.855C1357.54 503.441 1357.59 503.934 1357.67 504.332C1357.76 504.723 1357.89 505.035 1358.08 505.27C1358.27 505.512 1358.51 505.684 1358.8 505.785C1359.09 505.887 1359.43 505.938 1359.82 505.938C1360.22 505.938 1360.59 505.895 1360.91 505.809C1361.23 505.715 1361.51 505.59 1361.75 505.434C1361.95 505.293 1362.13 505.129 1362.29 504.941C1362.45 504.746 1362.58 504.531 1362.69 504.297V495.32H1365.5V508H1362.96ZM1377.37 495.086C1377.83 495.086 1378.26 495.117 1378.68 495.18C1379.11 495.242 1379.45 495.316 1379.69 495.402L1379.29 498.168C1378.86 498.074 1378.44 498.004 1378.02 497.957C1377.6 497.91 1377.19 497.887 1376.77 497.887C1376.31 497.887 1375.88 497.934 1375.51 498.027C1375.13 498.121 1374.8 498.266 1374.51 498.461C1374.2 498.648 1373.93 498.887 1373.72 499.176C1373.5 499.465 1373.31 499.797 1373.17 500.172V508H1370.36V495.32H1372.99L1373.11 497.078L1373.12 497.371C1373.63 496.66 1374.25 496.102 1374.97 495.695C1375.7 495.289 1376.5 495.086 1377.37 495.086ZM1388.48 508.234C1387.55 508.234 1386.69 508.078 1385.9 507.766C1385.13 507.453 1384.47 507.02 1383.91 506.465C1383.36 505.918 1382.93 505.273 1382.62 504.531C1382.33 503.781 1382.18 502.973 1382.18 502.105V501.625C1382.18 500.633 1382.33 499.734 1382.65 498.93C1382.96 498.125 1383.39 497.438 1383.94 496.867C1384.48 496.297 1385.12 495.859 1385.83 495.555C1386.56 495.242 1387.33 495.086 1388.15 495.086C1389.07 495.086 1389.88 495.242 1390.58 495.555C1391.28 495.859 1391.87 496.285 1392.35 496.832C1392.83 497.387 1393.19 498.047 1393.43 498.812C1393.67 499.578 1393.79 500.414 1393.79 501.32V502.527H1385V502.586C1385.09 503.141 1385.22 503.605 1385.4 503.98C1385.58 504.355 1385.83 504.691 1386.14 504.988C1386.45 505.301 1386.82 505.543 1387.24 505.715C1387.67 505.887 1388.14 505.973 1388.65 505.973C1389.34 505.973 1389.99 505.84 1390.59 505.574C1391.19 505.301 1391.69 504.914 1392.08 504.414L1393.58 505.867C1393.16 506.477 1392.51 507.023 1391.64 507.508C1390.77 507.992 1389.72 508.234 1388.48 508.234ZM1388.14 497.359C1387.74 497.359 1387.37 497.434 1387.03 497.582C1386.69 497.723 1386.39 497.926 1386.13 498.191C1385.86 498.465 1385.64 498.793 1385.46 499.176C1385.28 499.559 1385.15 499.992 1385.06 500.477H1391.03V500.289C1391.03 499.922 1390.96 499.559 1390.83 499.199C1390.69 498.832 1390.51 498.512 1390.26 498.238C1390.03 497.973 1389.73 497.762 1389.37 497.605C1389.02 497.441 1388.61 497.359 1388.14 497.359ZM1404.81 504.566C1404.81 504.348 1404.76 504.152 1404.66 503.98C1404.56 503.809 1404.4 503.645 1404.18 503.488C1403.93 503.348 1403.62 503.215 1403.23 503.09C1402.84 502.965 1402.35 502.848 1401.76 502.738C1401.03 502.59 1400.35 502.406 1399.75 502.188C1399.14 501.969 1398.62 501.703 1398.19 501.391C1397.76 501.094 1397.42 500.742 1397.18 500.336C1396.94 499.93 1396.82 499.457 1396.82 498.918C1396.82 498.402 1396.94 497.914 1397.18 497.453C1397.43 496.984 1397.78 496.574 1398.25 496.223C1398.7 495.871 1399.25 495.594 1399.89 495.391C1400.53 495.188 1401.25 495.086 1402.04 495.086C1402.89 495.086 1403.64 495.191 1404.32 495.402C1404.99 495.605 1405.56 495.887 1406.03 496.246C1406.49 496.605 1406.84 497.031 1407.09 497.523C1407.34 498.016 1407.47 498.547 1407.47 499.117H1404.67C1404.67 498.883 1404.62 498.66 1404.52 498.449C1404.42 498.23 1404.28 498.035 1404.09 497.863C1403.87 497.66 1403.59 497.5 1403.25 497.383C1402.91 497.258 1402.5 497.195 1402.04 497.195C1401.62 497.195 1401.25 497.242 1400.93 497.336C1400.62 497.422 1400.36 497.543 1400.16 497.699C1399.95 497.84 1399.8 498.008 1399.7 498.203C1399.6 498.391 1399.55 498.59 1399.55 498.801C1399.55 499.02 1399.59 499.219 1399.68 499.398C1399.76 499.57 1399.91 499.723 1400.13 499.855C1400.34 499.996 1400.62 500.125 1400.98 500.242C1401.34 500.359 1401.8 500.465 1402.36 500.559C1403.13 500.699 1403.84 500.871 1404.48 501.074C1405.12 501.277 1405.67 501.527 1406.12 501.824C1406.57 502.137 1406.93 502.504 1407.18 502.926C1407.43 503.348 1407.55 503.848 1407.55 504.426C1407.55 504.988 1407.42 505.504 1407.15 505.973C1406.89 506.441 1406.53 506.844 1406.05 507.18C1405.57 507.516 1404.99 507.777 1404.32 507.965C1403.64 508.152 1402.9 508.246 1402.08 508.246C1401.16 508.246 1400.35 508.125 1399.64 507.883C1398.94 507.641 1398.35 507.32 1397.87 506.922C1397.39 506.531 1397.02 506.082 1396.77 505.574C1396.52 505.066 1396.39 504.551 1396.39 504.027H1399.11C1399.14 504.418 1399.24 504.75 1399.42 505.023C1399.6 505.289 1399.84 505.504 1400.12 505.668C1400.39 505.84 1400.71 505.965 1401.06 506.043C1401.41 506.113 1401.77 506.148 1402.12 506.148C1402.61 506.148 1403.03 506.098 1403.39 505.996C1403.76 505.895 1404.05 505.758 1404.27 505.586C1404.45 505.445 1404.58 505.293 1404.67 505.129C1404.76 504.957 1404.81 504.77 1404.81 504.566Z" fill="#1E1E1E"/>
<rect x="1330" y="538.322" width="32" height="130" rx="3" fill="#E4CCFF"/>
<rect x="1274" y="538.322" width="32" height="130" rx="3" fill="#E4CCFF"/>
<rect x="1386" y="538.322" width="32" height="130" rx="3" fill="#E4CCFF"/>
<rect x="1338" y="548.322" width="16" height="16" rx="3" fill="#9747FF"/>
<rect x="1282" y="548.322" width="16" height="16" rx="3" fill="#9747FF"/>
<rect x="1394" y="548.322" width="16" height="16" rx="3" fill="#9747FF"/>
<rect x="1282" y="570.322" width="16" height="16" rx="3" fill="#9747FF"/>
<rect x="1394" y="570.322" width="16" height="16" rx="3" fill="#9747FF"/>
<rect x="1282" y="592.322" width="16" height="16" rx="3" fill="#9747FF"/>
<rect x="1394" y="592.322" width="16" height="16" rx="3" fill="#9747FF"/>
<rect x="1394" y="614.322" width="16" height="16" rx="3" fill="#9747FF"/>
<rect x="1234" y="522.322" width="224" height="162" rx="6" stroke="#1E1E1E" stroke-width="4" stroke-miterlimit="0" stroke-linecap="round"/>
<path d="M480 152H1184" stroke="#14AE5C" stroke-width="3" stroke-miterlimit="0" stroke-linecap="round" stroke-linejoin="bevel" stroke-dasharray="16 10"/>
<path d="M745.189 376H1182.81" stroke="#14AE5C" stroke-width="3" stroke-miterlimit="0" stroke-linecap="round" stroke-linejoin="bevel" stroke-dasharray="16 10"/>
<path d="M994 600H1184.27" stroke="#14AE5C" stroke-width="3" stroke-miterlimit="0" stroke-linecap="round" stroke-linejoin="bevel" stroke-dasharray="16 10"/>
</svg>
